# xmcd
#
# Track frame offsets:
#	150
#	15090
#	43642
#	63999
#	87107
#	113043
#	125811
#	134228
#	152231
#	170242
#	192329
#	220774
#	239851
#	264673
#
# Disc length: 3816 seconds
#
# Revision: 1
# Processed by: cddbd v1.5.2PL0 Copyright (c) Steve Scherf et al.
# Submitted via: audiograbber 1.83.01
#
DISCID=d10ee60e
DTITLE=Main Influenz - Memories Blues
DYEAR=1999
DGENRE=Blues
TTITLE0=I Love your Shoes
TTITLE1=Memories Blues
TTITLE2=Anything you want me to
TTITLE3=I wait for you
TTITLE4=Thats the truth
TTITLE5=Friday night fry
TTITLE6=TNT
TTITLE7=The only flame
TTITLE8=Lower ground
TTITLE9=Killing floor
TTITLE10=I´m a king bee
TTITLE11=Please send me someone to love
TTITLE12=Riding
TTITLE13=Lenny
EXTD=
EXTT0=
EXTT1=
EXTT2=
EXTT3=
EXTT4=
EXTT5=
EXTT6=
EXTT7=
EXTT8=
EXTT9=
EXTT10=
EXTT11=
EXTT12=
EXTT13=
PLAYORDER=
